HIERARCHY
ROOT Hip
{
	OFFSET	0.0000	0.0000	0.0000
	CHANNELS 6 Xposition Yposition Zposition Xrotation Yrotation Zrotation
	JOINT LowerSpine
	{
		OFFSET	0.0000	10.1932	-5.5160
		CHANNELS 3 Xrotation Yrotation Zrotation
		JOINT MiddleSpine
		{
			OFFSET	0.0000	9.3020	0.4860
			CHANNELS 3 Xrotation Yrotation Zrotation
			JOINT Chest
			{
				OFFSET	0.0000	11.5102	-2.5620
				CHANNELS 3 Xrotation Yrotation Zrotation
				JOINT Neck
				{
					OFFSET	0.0000	25.9379	-0.5394
					CHANNELS 3 Xrotation Yrotation Zrotation
					JOINT Head
					{
						OFFSET	-0.0001	14.6474	3.9841
						CHANNELS 3 Xrotation Yrotation Zrotation
						End Site
						{
							OFFSET	0.0001	20.4661	0.6110
						}
					}
				}
				JOINT LClavicle
				{
					OFFSET	2.6187	25.0313	8.5759
					CHANNELS 3 Xrotation Yrotation Zrotation
					JOINT LShoulder
					{
						OFFSET	15.2984	3.5904	-5.8096
						CHANNELS 3 Xrotation Yrotation Zrotation
						JOINT LForearm
						{
							OFFSET	32.4969	-0.1152	-0.2816
							CHANNELS 3 Xrotation Yrotation Zrotation
							JOINT LHand
							{
								OFFSET	27.1093	0.0786	-0.1624
								CHANNELS 3 Xrotation Yrotation Zrotation
								JOINT LFinger1
								{
									OFFSET	10.5068	0.9189	2.9182
									CHANNELS 3 Xrotation Yrotation Zrotation
									JOINT LFinger11
									{
										OFFSET	3.9301	-0.9583	0.6925
										CHANNELS 3 Xrotation Yrotation Zrotation
										JOINT LFinger12
										{
											OFFSET	2.6830	-0.6544	0.4729
											CHANNELS 3 Xrotation Yrotation Zrotation
											End Site
											{
												OFFSET	1.9092	-0.5699	0.3097
											}
										}
									}
								}
								JOINT LFinger2
								{
									OFFSET	10.6636	1.0611	0.2541
									CHANNELS 3 Xrotation Yrotation Zrotation
									JOINT LFinger21
									{
										OFFSET	4.8593	0.0136	-0.0287
										CHANNELS 3 Xrotation Yrotation Zrotation
										JOINT LFinger22
										{
											OFFSET	2.6935	0.0083	-0.0164
											CHANNELS 3 Xrotation Yrotation Zrotation
											End Site
											{
												OFFSET	2.4193	-0.1708	0.0032
											}
										}
									}
								}
								JOINT LFinger3
								{
									OFFSET	10.1060	0.7082	-2.3909
									CHANNELS 3 Xrotation Yrotation Zrotation
									JOINT LFinger31
									{
										OFFSET	4.4093	-0.2232	-0.2761
										CHANNELS 3 Xrotation Yrotation Zrotation
										JOINT LFinger32
										{
											OFFSET	2.5127	-0.1264	-0.1578
											CHANNELS 3 Xrotation Yrotation Zrotation
											End Site
											{
												OFFSET	2.2216	-0.2731	-0.1050
											}
										}
									}
								}
								JOINT LFinger4
								{
									OFFSET	9.3780	-0.7126	-4.1291
									CHANNELS 3 Xrotation Yrotation Zrotation
									JOINT LFinger41
									{
										OFFSET	2.7122	-0.5656	-0.7487
										CHANNELS 3 Xrotation Yrotation Zrotation
										JOINT LFinger42
										{
											OFFSET	1.9889	-0.4142	-0.5494
											CHANNELS 3 Xrotation Yrotation Zrotation
											End Site
											{
												OFFSET	1.7652	-0.4850	-0.4050
											}
										}
									}
								}
								JOINT LFinger0
								{
									OFFSET	2.1735	-1.6451	1.6477
									CHANNELS 3 Xrotation Yrotation Zrotation
									JOINT LFinger01
									{
										OFFSET	4.0467	-1.3289	3.0509
										CHANNELS 3 Xrotation Yrotation Zrotation
										JOINT LFinger02
										{
											OFFSET	2.6647	-0.9535	1.9198
											CHANNELS 3 Xrotation Yrotation Zrotation
											End Site
											{
												OFFSET	1.9595	-0.6745	1.3418
											}
										}
									}
								}
							}
						}
					}
				}
				JOINT RClavicle
				{
					OFFSET	-2.6187	25.0313	8.5759
					CHANNELS 3 Xrotation Yrotation Zrotation
					JOINT RShoulder
					{
						OFFSET	-15.3012	3.5910	-5.8106
						CHANNELS 3 Xrotation Yrotation Zrotation
						JOINT RForearm
						{
							OFFSET	-32.4969	-0.1152	-0.2816
							CHANNELS 3 Xrotation Yrotation Zrotation
							JOINT RHand
							{
								OFFSET	-27.1093	0.0786	-0.1624
								CHANNELS 3 Xrotation Yrotation Zrotation
								JOINT RFinger1
								{
									OFFSET	-10.5069	0.9190	2.9183
									CHANNELS 3 Xrotation Yrotation Zrotation
									JOINT RFinger11
									{
										OFFSET	-3.9301	-0.9583	0.6925
										CHANNELS 3 Xrotation Yrotation Zrotation
										JOINT RFinger12
										{
											OFFSET	-2.6829	-0.6545	0.4729
											CHANNELS 3 Xrotation Yrotation Zrotation
											End Site
											{
												OFFSET	-1.9092	-0.5699	0.3097
											}
										}
									}
								}
								JOINT RFinger2
								{
									OFFSET	-10.6636	1.0612	0.2541
									CHANNELS 3 Xrotation Yrotation Zrotation
									JOINT RFinger21
									{
										OFFSET	-4.8593	0.0136	-0.0287
										CHANNELS 3 Xrotation Yrotation Zrotation
										JOINT RFinger22
										{
											OFFSET	-2.6935	0.0082	-0.0165
											CHANNELS 3 Xrotation Yrotation Zrotation
											End Site
											{
												OFFSET	-2.4193	-0.1708	0.0032
											}
										}
									}
								}
								JOINT RFinger3
								{
									OFFSET	-10.1060	0.7082	-2.3909
									CHANNELS 3 Xrotation Yrotation Zrotation
									JOINT RFinger31
									{
										OFFSET	-4.4093	-0.2232	-0.2761
										CHANNELS 3 Xrotation Yrotation Zrotation
										JOINT RFinger32
										{
											OFFSET	-2.5127	-0.1264	-0.1578
											CHANNELS 3 Xrotation Yrotation Zrotation
											End Site
											{
												OFFSET	-2.2216	-0.2732	-0.1050
											}
										}
									}
								}
								JOINT RFinger4
								{
									OFFSET	-9.3780	-0.7126	-4.1291
									CHANNELS 3 Xrotation Yrotation Zrotation
									JOINT RFinger41
									{
										OFFSET	-2.7122	-0.5656	-0.7487
										CHANNELS 3 Xrotation Yrotation Zrotation
										JOINT RFinger42
										{
											OFFSET	-1.9888	-0.4141	-0.5494
											CHANNELS 3 Xrotation Yrotation Zrotation
											End Site
											{
												OFFSET	-1.7652	-0.4850	-0.4050
											}
										}
									}
								}
								JOINT RFinger0
								{
									OFFSET	-2.1735	-1.6450	1.6476
									CHANNELS 3 Xrotation Yrotation Zrotation
									JOINT RFinger01
									{
										OFFSET	-4.0466	-1.3291	3.0511
										CHANNELS 3 Xrotation Yrotation Zrotation
										JOINT RFinger02
										{
											OFFSET	-2.6646	-0.9534	1.9198
											CHANNELS 3 Xrotation Yrotation Zrotation
											End Site
											{
												OFFSET	-1.9595	-0.6745	1.3418
											}
										}
									}
								}
							}
						}
					}
				}
			}
		}
	}
	JOINT RThigh
	{
		OFFSET	-10.9042	4.6076	-0.8988
		CHANNELS 3 Xrotation Yrotation Zrotation
		JOINT RShin
		{
			OFFSET	-0.8725	-47.4282	0.0000
			CHANNELS 3 Xrotation Yrotation Zrotation
			JOINT RFoot
			{
				OFFSET	0.0000	-46.5716	0.0000
				CHANNELS 3 Xrotation Yrotation Zrotation
				JOINT RToe
				{
					OFFSET	0.0000	-5.1186	10.7037
					CHANNELS 3 Xrotation Yrotation Zrotation
					End Site
					{
						OFFSET	0.0000	0.0000	7.1807
					}
				}
			}
		}
	}
	JOINT LThigh
	{
		OFFSET	10.9040	4.6079	-0.8988
		CHANNELS 3 Xrotation Yrotation Zrotation
		JOINT LShin
		{
			OFFSET	0.8726	-47.4285	0.0000
			CHANNELS 3 Xrotation Yrotation Zrotation
			JOINT LFoot
			{
				OFFSET	0.0000	-46.5716	0.0000
				CHANNELS 3 Xrotation Yrotation Zrotation
				JOINT LToe
				{
					OFFSET	0.0000	-5.1187	10.7038
					CHANNELS 3 Xrotation Yrotation Zrotation
					End Site
					{
						OFFSET	0.0000	0.0000	7.1807
					}
				}
			}
		}
	}
}
MOTION
Frames:	8
Frame Time: 0.0333333000
	6.2338	96.6866	-94.8969	14.386860	0.748166	-7.969197	0.000000	0.000000	0.000000	-5.556594	1.261031	2.520823	-18.713110	3.203577	8.797349	0.000000	0.000000	0.000000	5.916010	-4.954769	-5.294930	0.000000	0.000000	-15.053820	107.613400	-59.961190	23.611990	0.000000	-21.476100	0.000000	0.000000	0.000000	0.000000	0.000000	0.000000	0.000000	0.000000	0.000000	0.000000	0.000000	0.000000	0.000000	0.000000	0.000000	0.000000	0.000000	0.000000	0.000000	0.000000	0.000000	0.000000	0.000000	0.000000	0.000000	0.000000	0.000000	0.000000	0.000000	0.000000	0.000000	0.000000	0.000000	0.000000	0.000000	0.000000	0.000000	0.000000	0.000000	0.000000	0.000000	0.000000	0.000000	0.000000	0.000000	0.000000	0.000000	0.000000	0.000000	0.000000	0.000000	13.559000	31.593940	29.917160	51.384810	0.000000	30.348550	0.000000	-71.479420	52.496600	-15.316130	0.000000	0.000000	0.000000	0.000000	0.000000	0.000000	0.000000	0.000000	0.000000	0.000000	0.000000	0.000000	0.000000	0.000000	0.000000	0.000000	0.000000	0.000000	0.000000	0.000000	0.000000	0.000000	0.000000	0.000000	0.000000	0.000000	0.000000	0.000000	0.000000	0.000000	0.000000	0.000000	0.000000	0.000000	0.000000	0.000000	0.000000	0.000000	0.000000	0.000000	0.000000	0.000000	0.000000	0.000000	0.000000	-25.708480	-1.317497	7.486207	19.287520	0.000002	0.000000	0.628132	-1.597694	-0.758474	0.000000	0.000000	0.000000	-26.436190	-2.722459	11.229300	22.078480	0.000002	0.000000	-10.387470	-6.811965	-4.047223	0.000000	0.000000	0.000000
	6.0836	96.5610	-96.2685	16.888890	0.867524	-8.650414	0.000000	0.000000	0.000000	-6.102720	1.252537	2.677223	-20.536330	3.014081	9.336393	0.000000	0.000000	0.000000	4.935390	-4.263715	-5.822327	0.000000	0.000000	-15.273660	106.981700	-60.992380	22.715550	0.000000	-23.971180	0.000000	0.000000	0.000000	0.000000	0.000000	0.000000	0.000000	0.000000	0.000000	0.000000	0.000000	0.000000	0.000000	0.000000	0.000000	0.000000	0.000000	0.000000	0.000000	0.000000	0.000000	0.000000	0.000000	0.000000	0.000000	0.000000	0.000000	0.000000	0.000000	0.000000	0.000000	0.000000	0.000000	0.000000	0.000000	0.000000	0.000000	0.000000	0.000000	0.000000	0.000000	0.000000	0.000000	0.000000	0.000000	0.000000	0.000000	0.000000	0.000000	0.000000	0.000000	13.721270	30.512550	31.209740	50.361590	0.000000	32.646180	0.000000	-60.023800	54.832070	-22.895420	0.000000	0.000000	0.000000	0.000000	0.000000	0.000000	0.000000	0.000000	0.000000	0.000000	0.000000	0.000000	0.000000	0.000000	0.000000	0.000000	0.000000	0.000000	0.000000	0.000000	0.000000	0.000000	0.000000	0.000000	0.000000	0.000000	0.000000	0.000000	0.000000	0.000000	0.000000	0.000000	0.000000	0.000000	0.000000	0.000000	0.000000	0.000000	0.000000	0.000000	0.000000	0.000000	0.000000	0.000000	0.000000	-30.077540	-1.751694	7.879223	21.613650	0.000002	-0.000001	0.993218	-1.027401	-0.485968	0.000000	0.000000	0.000000	-30.852290	-3.440749	11.893430	24.384390	0.000002	0.000000	-10.054190	-5.930007	-3.495030	0.000000	0.000000	0.000000
	5.6511	96.6876	-97.2509	18.588300	0.466800	-9.342584	0.000000	0.000000	0.000000	-6.507398	1.331806	2.807891	-21.905710	3.134537	9.818106	0.000000	0.000000	0.000000	3.867805	-3.316617	-5.961412	0.000000	0.000000	-15.385540	104.120500	-61.927170	19.916820	0.000000	-25.258360	0.000000	0.000000	0.000000	0.000000	0.000000	0.000000	0.000000	0.000000	0.000000	0.000000	0.000000	0.000000	0.000000	0.000000	0.000000	0.000000	0.000000	0.000000	0.000000	0.000000	0.000000	0.000000	0.000000	0.000000	0.000000	0.000000	0.000000	0.000000	0.000000	0.000000	0.000000	0.000000	0.000000	0.000000	0.000000	0.000000	0.000000	0.000000	0.000000	0.000000	0.000000	0.000000	0.000000	0.000000	0.000000	0.000000	0.000000	0.000000	0.000000	0.000000	0.000000	13.889210	28.854890	33.581390	48.538430	0.000000	35.264230	0.000000	-44.902610	56.019040	-31.204170	0.000000	0.000000	0.000000	0.000000	0.000000	0.000000	0.000000	0.000000	0.000000	0.000000	0.000000	0.000000	0.000000	0.000000	0.000000	0.000000	0.000000	0.000000	0.000000	0.000000	0.000000	0.000000	0.000000	0.000000	0.000000	0.000000	0.000000	0.000000	0.000000	0.000000	0.000000	0.000000	0.000000	0.000000	0.000000	0.000000	0.000000	0.000000	0.000000	0.000000	0.000000	0.000000	0.000000	0.000000	0.000000	-33.188990	-2.174523	8.687485	23.344800	0.000002	-0.000001	0.918476	-0.579576	-0.270966	0.000000	0.000000	0.000000	-34.048830	-3.799938	12.904720	26.376050	0.000003	0.000000	-9.674928	-5.227987	-3.049244	0.000000	0.000000	0.000000
	4.9524	96.8758	-98.0221	19.921410	1.246516	-10.808820	0.000000	0.000000	0.000000	-6.836949	1.443403	2.920704	-23.032200	3.379944	10.257500	0.000000	0.000000	0.000000	3.719060	-5.131398	-5.642673	0.000000	0.000000	-15.390140	96.487920	-63.074170	13.334680	0.000000	-25.935540	0.000000	0.000000	0.000000	0.000000	0.000000	0.000000	0.000000	0.000000	0.000000	0.000000	0.000000	0.000000	0.000000	0.000000	0.000000	0.000000	0.000000	0.000000	0.000000	0.000000	0.000000	0.000000	0.000000	0.000000	0.000000	0.000000	0.000000	0.000000	0.000000	0.000000	0.000000	0.000000	0.000000	0.000000	0.000000	0.000000	0.000000	0.000000	0.000000	0.000000	0.000000	0.000000	0.000000	0.000000	0.000000	0.000000	0.000000	0.000000	0.000000	0.000000	0.000000	13.814190	28.087580	36.610540	45.514720	0.000000	39.793640	0.000000	-17.269990	56.792420	-47.494420	0.000000	0.000000	0.000000	0.000000	0.000000	0.000000	0.000000	0.000000	0.000000	0.000000	0.000000	0.000000	0.000000	0.000000	0.000000	0.000000	0.000000	0.000000	0.000000	0.000000	0.000000	0.000000	0.000000	0.000000	0.000000	0.000000	0.000000	0.000000	0.000000	0.000000	0.000000	0.000000	0.000000	0.000000	0.000000	0.000000	0.000000	0.000000	0.000000	0.000000	0.000000	0.000000	0.000000	0.000000	0.000000	-35.322590	-2.764000	9.905673	24.251180	0.000002	-0.000001	0.262558	-0.208789	-0.098717	0.000000	0.000000	0.000000	-37.354240	-3.197992	14.090760	28.123230	0.000003	0.000000	-9.124340	-5.097652	-2.941364	0.000000	0.000000	0.000000
	4.2696	96.8027	-98.3990	21.058330	3.648160	-13.021640	0.000000	0.000000	0.000000	-7.121643	1.511361	2.998143	-23.998670	3.503136	10.559090	0.000000	0.000000	0.000000	1.927452	-6.682850	-5.456130	0.000000	0.000000	-15.349960	83.595860	-63.647440	1.934410	0.000000	-26.446100	0.000000	0.000000	0.000000	0.000000	0.000000	0.000000	0.000000	0.000000	0.000000	0.000000	0.000000	0.000000	0.000000	0.000000	0.000000	0.000000	0.000000	0.000000	0.000000	0.000000	0.000000	0.000000	0.000000	0.000000	0.000000	0.000000	0.000000	0.000000	0.000000	0.000000	0.000000	0.000000	0.000000	0.000000	0.000000	0.000000	0.000000	0.000000	0.000000	0.000000	0.000000	0.000000	0.000000	0.000000	0.000000	0.000000	0.000000	0.000000	0.000000	0.000000	0.000000	13.459480	27.195810	38.906220	42.404470	0.000000	46.676550	0.000000	-20.129720	47.655290	-51.974820	0.000000	0.000000	0.000000	0.000000	0.000000	0.000000	0.000000	0.000000	0.000000	0.000000	0.000000	0.000000	0.000000	0.000000	0.000000	0.000000	0.000000	0.000000	0.000000	0.000000	0.000000	0.000000	0.000000	0.000000	0.000000	0.000000	0.000000	0.000000	0.000000	0.000000	0.000000	0.000000	0.000000	0.000000	0.000000	0.000000	0.000000	0.000000	0.000000	0.000000	0.000000	0.000000	0.000000	0.000000	0.000000	-36.441560	-3.349770	10.941560	24.251680	0.000002	-0.000001	-0.532273	0.141567	0.066660	0.000000	0.000000	0.000000	-40.531520	-2.255143	15.055620	29.421110	0.000003	0.000000	-8.941854	-4.399931	-2.555053	0.000000	0.000000	0.000000
	3.6994	96.4863	-97.9605	22.013670	6.587801	-15.324830	0.000000	0.000000	0.000000	-7.408417	1.534249	2.985342	-24.957430	3.520994	10.544010	0.000000	0.000000	0.000000	1.535048	-9.449915	-5.014239	0.000000	0.000000	-15.307340	67.869270	-62.253490	-12.699780	0.000000	-26.678220	0.000000	0.000000	0.000000	0.000000	0.000000	0.000000	0.000000	0.000000	0.000000	0.000000	0.000000	0.000000	0.000000	0.000000	0.000000	0.000000	0.000000	0.000000	0.000000	0.000000	0.000000	0.000000	0.000000	0.000000	0.000000	0.000000	0.000000	0.000000	0.000000	0.000000	0.000000	0.000000	0.000000	0.000000	0.000000	0.000000	0.000000	0.000000	0.000000	0.000000	0.000000	0.000000	0.000000	0.000000	0.000000	0.000000	0.000000	0.000000	0.000000	0.000000	0.000000	13.136800	23.986990	39.811750	41.542330	0.000000	54.768200	0.000000	2.991700	37.094130	-61.401680	0.000000	0.000000	0.000000	0.000000	0.000000	0.000000	0.000000	0.000000	0.000000	0.000000	0.000000	0.000000	0.000000	0.000000	0.000000	0.000000	0.000000	0.000000	0.000000	0.000000	0.000000	0.000000	0.000000	0.000000	0.000000	0.000000	0.000000	0.000000	0.000000	0.000000	0.000000	0.000000	0.000000	0.000000	0.000000	0.000000	0.000000	0.000000	0.000000	0.000000	0.000000	0.000000	0.000000	0.000000	0.000000	-35.981260	-3.694867	11.784380	22.571920	0.000002	-0.000001	-1.126242	0.086920	0.034153	0.000000	0.000000	0.000000	-42.205590	-2.846284	15.703950	30.375690	0.000003	0.000000	-9.564732	-3.289917	-1.930022	0.000000	0.000000	0.000000
	3.0731	96.2766	-96.8770	22.843960	9.346684	-17.439110	0.000000	0.000000	0.000000	-7.704454	1.547036	2.831447	-25.937460	3.577443	10.062640	0.000000	0.000000	0.000000	1.795442	-11.451820	-3.657710	0.000000	0.000000	-15.162740	60.253770	-59.877620	-20.175210	0.000000	-27.790770	0.000000	0.000000	0.000000	0.000000	0.000000	0.000000	0.000000	0.000000	0.000000	0.000000	0.000000	0.000000	0.000000	0.000000	0.000000	0.000000	0.000000	0.000000	0.000000	0.000000	0.000000	0.000000	0.000000	0.000000	0.000000	0.000000	0.000000	0.000000	0.000000	0.000000	0.000000	0.000000	0.000000	0.000000	0.000000	0.000000	0.000000	0.000000	0.000000	0.000000	0.000000	0.000000	0.000000	0.000000	0.000000	0.000000	0.000000	0.000000	0.000000	0.000000	0.000000	12.916150	18.087620	39.291210	43.273490	0.000000	62.316900	0.000000	18.686410	27.452990	-58.567950	0.000000	0.000000	0.000000	0.000000	0.000000	0.000000	0.000000	0.000000	0.000000	0.000000	0.000000	0.000000	0.000000	0.000000	0.000000	0.000000	0.000000	0.000000	0.000000	0.000000	0.000000	0.000000	0.000000	0.000000	0.000000	0.000000	0.000000	0.000000	0.000000	0.000000	0.000000	0.000000	0.000000	0.000000	0.000000	0.000000	0.000000	0.000000	0.000000	0.000000	0.000000	0.000000	0.000000	0.000000	0.000000	-34.387100	-3.784671	12.781980	19.643320	0.000002	0.000000	-1.131133	-0.865859	-0.409005	0.000000	0.000000	0.000000	-42.263100	-4.687482	16.366730	30.483330	0.000003	0.000000	-10.348270	-2.759207	-1.631324	0.000000	0.000000	0.000000
	2.1819	96.2614	-95.9596	23.682710	12.191490	-19.556430	0.000000	0.000000	0.000000	-7.948574	1.597631	2.531914	-26.747300	3.851732	9.125909	0.000000	0.000000	0.000000	2.061767	-13.504220	-2.114129	0.000000	0.000000	-14.745100	69.053640	-59.670660	-11.632340	0.000000	-32.081950	0.000000	0.000000	0.000000	0.000000	0.000000	0.000000	0.000000	0.000000	0.000000	0.000000	0.000000	0.000000	0.000000	0.000000	0.000000	0.000000	0.000000	0.000000	0.000000	0.000000	0.000000	0.000000	0.000000	0.000000	0.000000	0.000000	0.000000	0.000000	0.000000	0.000000	0.000000	0.000000	0.000000	0.000000	0.000000	0.000000	0.000000	0.000000	0.000000	0.000000	0.000000	0.000000	0.000000	0.000000	0.000000	0.000000	0.000000	0.000000	0.000000	0.000000	0.000000	12.444760	10.894830	38.436850	45.296180	0.000000	67.038040	0.000000	31.335070	18.959000	-51.911400	0.000000	0.000000	0.000000	0.000000	0.000000	0.000000	0.000000	0.000000	0.000000	0.000000	0.000000	0.000000	0.000000	0.000000	0.000000	0.000000	0.000000	0.000000	0.000000	0.000000	0.000000	0.000000	0.000000	0.000000	0.000000	0.000000	0.000000	0.000000	0.000000	0.000000	0.000000	0.000000	0.000000	0.000000	0.000000	0.000000	0.000000	0.000000	0.000000	0.000000	0.000000	0.000000	0.000000	0.000000	0.000000	-33.513290	-3.858217	13.873080	17.943290	0.000002	0.000000	-0.928505	-3.357432	-1.643813	0.000000	0.000000	0.000000	-42.385440	-5.996101	17.154730	29.480190	0.000003	0.000000	-9.949129	-2.692179	-1.601732	0.000000	0.000000	0.000000
